<svg width="1600" height="1600" viewBox="0 0 1600 1600" fill="none" xmlns="http://www.w3.org/2000/svg">
<path d="M125.118 236.27C118.743 245.895 195.243 815.52 193.993 851.52C192.743 887.645 150.493 982.145 121.868 1065.39C93.2427 1148.77 44.7427 1314.14 52.2427 1320.39C59.7427 1326.64 580.743 1391.64 743.743 1387.52C906.743 1383.39 1133.99 1337.77 1328.74 1322.27C1456.37 1312.14 1526.12 1301.02 1536.37 1301.02C1546.62 1301.02 1556.87 1297.89 1550.62 1275.02C1544.37 1252.14 1475.24 1048.77 1447.99 974.145C1420.74 899.52 1385.49 810.77 1385.49 810.77C1385.49 810.77 1412.74 615.145 1431.87 487.02C1450.99 358.895 1465.12 293.395 1462.12 287.395C1459.12 281.395 1002.24 213.77 993.118 213.77C983.993 213.77 612.868 314.645 593.743 313.645C574.618 312.52 131.618 226.52 125.118 236.27Z" fill="#C8C8C8"/>
<path d="M264.244 847.983C264.244 847.983 209.619 317.108 209.619 313.733C209.619 310.358 605.494 381.733 605.494 381.733L839.744 472.358C839.744 472.358 1000.62 284.108 1016.62 285.358C1032.62 286.608 1353.37 334.608 1365.49 335.983C1377.62 337.233 1384.12 345.608 1381.49 362.858C1378.99 380.108 1308.37 818.858 1308.37 818.858L761.119 967.608L264.244 847.983Z" fill="#1E85F9"/>
<path d="M605.493 381.852L1016.62 285.352L996.368 793.852L813.618 921.102L629.368 859.727L605.493 381.852Z" fill="#136FD8"/>
<path d="M264.255 848L629.38 859.75L816.63 906.125L996.38 793.75C996.38 793.75 1141.63 802.75 1182.13 805.75C1222.63 808.75 1308.51 818.75 1308.51 818.75C1308.51 818.75 1463.76 1221.75 1466.63 1226.88C1469.51 1232 1466.63 1242.25 1456.38 1243.63C1446.13 1245 1326.51 1250.88 1326.51 1250.88C1326.51 1250.88 1274.76 1231.88 1236.76 1237C1198.88 1242.13 1139.76 1273.5 1139.76 1273.5L1060.26 1282.25C1060.26 1282.25 1047.13 1264 1036.88 1253.75C1026.63 1243.5 1009.88 1236.25 1009.88 1236.25L820.63 1186.87L581.505 1313.25C581.505 1313.25 165.755 1275.75 149.13 1273.13C132.505 1270.5 124.755 1267 131.63 1246.13C138.63 1225.25 264.255 848 264.255 848Z" fill="#36B4E2"/>
<path d="M629.372 859.73C629.372 859.73 701.372 854.73 812.997 837.355C936.747 818.105 996.497 795.605 996.497 795.605L1012.5 1291.48C1012.5 1291.48 894.872 1316.23 801.497 1317.61C708.122 1318.98 581.372 1313.36 581.372 1313.36L629.372 859.73Z" fill="#6CCBF6"/>
<path d="M605.493 381.894L616.368 600.644C616.368 600.644 625.118 580.144 639.993 576.394C654.993 572.644 682.368 567.644 684.243 558.394C686.118 549.019 677.368 522.269 679.868 509.769C682.368 497.269 693.618 488.644 692.368 463.644C691.118 438.769 679.868 438.144 682.368 425.644C684.868 413.144 688.618 402.644 695.493 391.394C702.368 380.144 706.118 379.519 710.493 372.144C713.993 366.269 715.493 355.894 715.493 355.894L605.493 381.894ZM765.243 410.144C761.993 422.519 757.743 428.769 766.493 435.644C775.243 442.519 779.618 452.519 781.493 456.769C783.368 461.144 783.993 471.144 794.618 471.144C805.243 471.144 807.743 459.894 809.618 450.644C810.868 444.394 813.368 428.894 813.368 428.894C813.368 428.894 835.118 415.769 831.993 405.894C828.868 395.894 816.368 394.644 801.493 396.519C786.118 398.269 768.993 395.769 765.243 410.144ZM931.493 345.394C935.868 342.894 942.743 327.394 948.368 324.269C953.993 321.144 960.118 320.894 963.368 329.269C970.243 347.269 980.243 347.894 978.368 358.519C976.493 369.144 955.368 366.644 950.368 370.394C945.368 374.144 933.493 379.144 926.118 377.269C918.618 375.394 896.868 363.519 904.368 351.769C909.493 343.019 931.493 345.394 931.493 345.394ZM1006.87 528.019C1006.87 528.019 997.243 530.769 994.243 543.269C991.243 555.769 989.993 557.894 989.993 557.894C989.993 557.894 979.243 568.144 969.743 572.894C960.243 577.644 952.618 584.519 952.618 584.519C952.618 584.519 935.868 581.894 923.868 587.519C911.868 593.144 907.493 602.144 907.493 602.144C907.493 602.144 925.493 681.144 925.493 679.894C925.493 678.644 1003.49 642.269 1003.49 642.269L1006.87 528.019ZM871.368 578.769C871.368 578.769 847.868 560.394 835.493 559.144C827.993 558.394 802.993 565.519 798.368 572.144C793.743 578.894 777.743 604.644 771.368 617.644C764.993 630.644 740.743 648.019 743.118 662.269C746.368 681.519 764.243 677.394 764.243 677.394L781.493 677.019L789.118 639.894L831.618 597.394L871.368 578.769Z" fill="#C8C8C8"/>
<path d="M674.512 854.746C674.512 854.746 680.262 841.871 691.887 834.871C703.512 827.871 743.887 802.121 751.512 802.121C759.137 802.121 768.887 811.121 773.387 816.246C777.887 821.371 781.137 826.496 784.887 827.121C788.637 827.746 820.137 827.746 838.762 825.246C857.387 822.621 874.637 814.371 874.637 807.246C874.637 800.121 850.887 794.996 847.012 794.371C843.137 793.746 825.887 796.996 823.887 798.246C822.012 799.496 818.137 803.996 811.637 802.746C805.262 801.496 794.262 791.871 789.762 785.371C785.262 778.996 777.512 769.371 769.262 769.996C760.887 770.621 751.262 773.246 746.762 776.371C742.262 779.621 726.262 800.121 720.512 803.996C714.762 807.871 699.387 805.871 694.262 796.246C689.137 786.621 688.512 775.746 691.637 772.496C694.887 769.246 705.762 767.371 708.262 764.121C710.887 760.871 705.012 745.496 711.512 740.371C717.887 735.246 735.887 740.371 737.137 739.121C738.387 737.871 753.762 717.246 755.137 712.871C756.387 708.371 755.762 699.371 758.387 698.121C761.012 696.871 772.512 695.496 774.387 698.121C776.262 700.746 786.637 704.496 796.262 701.996C805.887 699.496 822.512 681.496 822.512 674.371C822.512 667.246 814.762 665.996 812.887 660.246C811.012 654.496 817.387 646.121 823.137 640.371C828.887 634.621 832.762 626.871 827.637 622.996C822.512 619.121 817.387 623.621 811.637 629.996C805.887 636.371 796.262 648.621 796.262 654.996C796.262 661.371 804.012 678.121 798.887 681.246C793.762 684.371 787.387 692.121 783.512 689.621C779.637 686.996 764.387 677.246 764.387 677.246C764.387 677.246 762.387 666.496 770.637 653.121C779.012 639.621 803.387 603.121 821.262 590.246C839.137 577.371 865.387 574.121 865.387 574.121C865.387 574.121 876.512 578.746 880.887 583.246C885.387 587.746 890.512 600.621 886.012 605.746C881.512 610.871 872.512 611.496 872.512 611.496C872.512 611.496 875.137 624.371 882.762 624.996C890.512 625.621 907.387 602.121 907.387 602.121C907.387 602.121 920.012 600.621 929.637 603.871C939.262 607.121 941.887 618.621 950.762 622.496C959.762 626.371 977.762 623.746 986.637 627.621C995.637 631.496 1003.26 641.746 1003.26 641.746L996.262 795.746C996.262 795.746 913.762 821.871 837.762 834.246C764.137 846.246 674.512 854.746 674.512 854.746Z" fill="#40C252"/>
<path d="M710.636 670.982C705.136 672.232 702.136 675.732 702.636 680.357C703.136 685.107 701.636 692.107 701.636 692.107C701.636 692.107 689.386 699.607 691.761 708.107C694.136 716.607 700.636 716.607 707.761 721.232C714.886 725.857 722.261 727.357 727.011 724.482C731.761 721.607 739.886 711.607 735.511 703.857C728.886 692.107 729.386 666.732 710.636 670.982Z" fill="#40C252"/>
<path d="M397.249 344.141C397.249 344.141 396.624 354.891 394.374 360.516C392.124 366.141 381.499 372.391 381.999 388.141C382.624 404.016 379.124 415.766 384.624 421.766C393.249 431.266 393.374 452.016 393.374 452.016C393.374 452.016 385.499 459.391 386.624 471.266C387.749 483.141 397.124 489.766 423.499 487.766C440.374 486.516 446.874 484.266 447.999 476.391C449.124 468.516 454.124 449.016 456.374 434.391C458.624 419.766 464.374 405.891 464.374 405.891C464.374 405.891 474.499 401.891 478.999 398.016C483.499 394.016 488.624 391.266 493.624 391.766C498.749 392.391 503.249 403.016 503.249 403.016C503.249 403.016 493.874 414.766 483.749 423.766C473.624 432.766 472.374 437.891 474.749 450.141C476.999 461.516 482.249 469.141 489.624 469.766C496.999 470.391 502.624 468.016 511.124 469.766C519.624 471.516 523.499 479.891 523.499 479.891C523.499 479.891 531.374 495.141 535.374 507.016C539.374 518.891 544.999 538.141 545.499 544.891C546.124 551.641 542.374 584.266 545.249 596.641C548.124 609.016 568.624 651.641 579.999 652.141C591.249 652.766 595.249 636.891 598.124 630.141C600.999 623.391 616.249 600.891 616.249 600.891L605.374 382.141L397.249 344.141Z" fill="#E0E0E0"/>
<path d="M233.74 551.122C233.74 551.122 239.615 542.247 245.24 540.622C250.865 538.997 261.615 533.872 261.615 529.872C261.615 525.872 259.99 515.622 262.74 505.622C265.615 495.497 284.24 483.622 310.74 483.497C330.99 483.372 340.115 495.997 343.99 502.872C347.99 509.622 349.615 531.622 351.365 535.122C353.115 538.622 359.24 545.247 365.99 545.247C372.74 545.247 374.99 542.372 374.99 537.372C374.99 532.247 372.115 528.372 375.615 520.997C378.99 513.622 384.115 506.372 403.24 503.997C422.49 501.747 444.115 499.372 450.74 501.122C461.99 504.247 481.865 523.122 485.24 527.122C488.615 531.122 491.99 546.872 493.115 553.622C494.24 560.372 504.99 572.247 508.365 576.247C511.74 580.247 512.865 607.872 490.865 608.997C468.865 610.122 468.865 584.122 468.865 577.372C468.865 570.622 466.615 563.247 463.24 562.122C459.865 560.997 445.49 559.997 443.99 563.247C438.99 574.247 445.74 581.372 442.865 585.247C439.99 589.247 399.365 624.247 397.115 630.997C394.865 637.747 388.615 649.122 395.99 658.122C403.365 667.122 429.865 676.747 434.99 679.622C440.115 682.497 450.865 673.997 449.615 667.747C448.49 661.497 442.24 654.747 442.24 647.372C442.24 639.997 451.865 626.497 457.49 625.372C463.115 624.247 477.865 638.372 477.865 638.372C477.865 638.372 500.49 636.622 506.115 640.622C511.74 644.622 512.865 657.622 512.865 657.622L520.24 669.997C520.24 669.997 488.615 723.622 486.865 724.247C485.115 724.872 275.115 710.747 275.115 710.747L237.865 593.872L233.74 551.122Z" fill="#E0E0E0"/>
<path d="M257.738 785.127C257.738 785.127 266.738 802.627 269.488 809.377C272.363 816.127 278.488 825.752 280.738 830.252C282.988 834.752 293.738 847.252 302.238 846.627C310.738 846.002 309.613 819.002 316.863 821.252C324.238 823.502 326.988 838.252 329.863 841.627C332.738 845.002 337.238 850.627 337.238 850.627L364.863 865.252L373.863 850.627C373.863 850.627 373.863 839.877 375.613 837.627C377.363 835.377 395.988 823.002 398.738 821.752C401.613 820.627 424.863 825.127 431.488 823.502C445.113 820.127 469.363 789.627 474.363 780.627C479.488 771.627 487.863 762.002 491.363 756.877C494.738 751.752 491.988 745.877 491.988 745.877C491.988 745.877 510.738 748.627 517.488 734.502C520.988 727.127 520.613 717.877 520.613 717.877C520.613 717.877 538.113 704.877 538.113 695.877C538.113 686.877 519.988 669.877 519.988 669.877C519.988 669.877 504.113 680.627 490.113 688.502C476.113 696.377 458.488 702.752 436.988 699.377C415.488 696.002 408.863 693.002 404.863 689.627C400.863 686.252 395.988 675.752 391.613 670.002C382.113 657.752 364.863 652.877 361.988 643.877C359.113 634.877 376.613 623.002 369.363 610.502C361.988 598.127 336.613 604.877 322.488 608.252C308.363 611.627 289.113 617.877 285.738 616.752C282.363 615.627 285.113 606.627 272.238 595.252C260.863 585.252 234.863 564.502 234.863 564.502L257.738 785.127Z" fill="#7ADC8A"/>
<path d="M337.378 850.732H374.128C374.128 850.732 375.128 856.982 377.503 858.857C379.878 860.732 386.003 864.607 389.378 864.107C392.753 863.607 400.753 853.357 409.753 854.232C423.253 855.732 432.128 862.482 435.878 868.232C439.628 873.857 442.128 888.857 449.253 893.607C456.378 898.357 469.003 890.982 490.878 893.607C506.628 895.482 510.753 895.482 514.503 898.732C518.253 901.982 522.378 911.232 525.128 911.732C527.878 912.232 535.753 908.482 540.878 909.857C546.003 911.232 563.503 930.607 570.503 935.232C577.378 939.857 583.878 945.857 583.878 945.857C583.878 945.857 593.628 941.732 603.753 946.732C613.878 951.857 615.878 964.483 615.878 964.483C615.878 964.483 618.753 991.107 595.378 1026.61C568.003 1068.23 558.378 1082.11 551.503 1089.98C544.628 1097.86 526.503 1108.98 519.628 1118.23C512.753 1127.48 509.003 1133.98 509.503 1138.11C510.003 1142.23 510.378 1153.36 507.253 1160.36C504.003 1167.23 501.753 1167.23 500.753 1175.61C499.753 1183.98 506.753 1198.23 501.253 1203.36C495.753 1208.48 477.253 1205.61 467.003 1187.61C456.878 1169.61 459.128 1140.86 462.378 1124.73C465.628 1108.61 476.253 1073.86 476.753 1051.73C477.253 1029.48 464.253 1006.48 451.378 994.358C438.503 982.233 434.753 978.232 434.753 957.857C434.753 943.982 442.128 937.482 442.128 937.482L443.503 917.608C443.503 917.608 428.628 914.857 423.628 908.357C418.503 901.857 413.503 896.357 407.003 894.482C400.503 892.607 385.628 896.607 373.753 891.107C368.878 888.857 358.628 878.857 354.378 875.982C343.253 868.732 337.378 850.732 337.378 850.732Z" fill="#D0FE8B"/>
<path d="M453.369 1302.02C453.369 1302.02 457.369 1294.02 465.369 1290.02C473.369 1286.02 484.744 1281.52 485.244 1278.02C485.744 1274.52 493.244 1252.15 503.244 1252.15C513.244 1252.15 510.244 1265.15 510.744 1269.65C511.244 1274.15 515.744 1277.65 514.744 1285.15C513.744 1292.65 509.244 1292.15 509.244 1296.15C509.244 1300.15 510.244 1307.15 510.244 1307.15L453.369 1302.02Z" fill="#E0E0E0"/>
<path d="M674.505 854.773C674.505 854.773 664.38 865.273 664.38 871.398C664.38 877.523 661.13 903.773 667.13 916.898C673.13 930.023 675.88 935.523 686.38 939.398C696.755 943.273 702.255 946.523 711.63 946.523C721.005 946.523 731.88 947.648 736.88 948.148C741.88 948.648 753.88 957.523 756.13 960.273C758.38 963.023 760.005 977.773 762.755 981.648C765.505 985.523 776.505 992.649 776.505 992.649C776.505 992.649 771.505 1022.77 777.63 1037.15C783.63 1051.4 788.63 1071.77 792.505 1081.65C796.38 1091.52 811.13 1105.27 815.505 1108.52C819.88 1111.77 829.755 1106.27 836.88 1099.77C844.005 1093.27 860.505 1074.02 864.38 1070.15C868.255 1066.27 868.255 1055.27 872.005 1050.4C875.88 1045.4 872.505 1035.52 878.005 1029.02C883.505 1022.4 895.505 1013.15 896.63 1006.02C897.755 998.899 893.88 978.523 897.755 972.023C901.63 965.398 918.005 943.523 923.505 938.523C929.005 933.523 932.88 922.648 929.505 919.273C926.13 915.898 904.755 917.023 898.755 913.273C892.755 909.398 882.255 893.023 879.505 887.523C876.755 882.023 866.88 868.898 865.255 863.398C863.63 857.898 874.005 851.898 876.755 853.523C879.505 855.148 893.255 877.148 898.755 884.773C904.255 892.398 904.255 895.148 908.13 896.273C912.005 897.398 923.005 898.523 925.63 896.273C928.38 894.023 939.38 888.648 944.255 884.773C949.255 880.898 957.38 877.648 956.88 873.773C956.38 869.898 954.63 861.148 951.88 860.023C949.13 858.898 933.755 861.148 933.755 861.148C933.755 861.148 918.88 843.648 917.88 840.273C916.88 836.898 925.005 832.649 930.505 836.399C936.005 840.149 948.63 846.273 951.88 847.398C955.13 848.523 970.505 852.899 975.505 852.899C980.505 852.899 999.63 864.398 999.63 864.398L996.505 795.898C996.505 795.898 913.005 822.648 838.005 834.398C760.255 846.398 674.505 854.773 674.505 854.773Z" fill="#E3FFAD"/>
<path d="M666.626 1316.02C666.626 1316.02 695.751 1297.64 701.001 1294.64C706.251 1291.64 738.751 1277.64 749.251 1274.77C755.251 1273.14 815.126 1269.39 826.001 1269.64C840.001 1269.89 852.626 1274.02 867.876 1273.27C883.126 1272.52 923.001 1277.14 930.626 1272.52C938.251 1267.89 974.251 1240.52 981.876 1237.27C991.251 1233.39 1010.75 1236.77 1010.75 1236.77L1012.5 1291.39C1012.5 1291.39 893.626 1316.14 801.501 1317.52C709.501 1319.14 666.626 1316.02 666.626 1316.02ZM1106 385.642C1093 378.642 1087.63 399.642 1085.63 405.017C1083.63 410.517 1081.75 419.142 1085.13 425.392C1089.13 432.892 1098.13 434.892 1102 438.392C1105.88 441.892 1118.88 445.892 1122.38 432.892C1125.88 419.892 1115.88 409.017 1115.88 409.017C1115.88 409.017 1116.5 391.267 1106 385.642ZM1006.88 528.142C1006.88 528.142 1014.13 526.142 1016.75 531.142C1018.25 533.892 1018.5 536.267 1020.25 538.142C1022 540.017 1042.63 541.642 1044.63 538.642C1046.63 535.642 1062 507.767 1078.5 497.767C1095 487.767 1114.38 485.267 1122.88 481.267C1131.38 477.267 1132.38 464.392 1142.25 464.392C1152.13 464.392 1181.13 483.767 1183.13 487.267C1185.13 490.767 1178.63 500.267 1172.63 507.642C1166.63 515.142 1157.13 520.142 1162.63 523.642C1168.13 527.142 1187.5 530.142 1198.5 530.642C1209.5 531.142 1215.88 527.142 1224.38 531.142C1232.88 535.142 1229.38 553.017 1234.38 554.017C1239.38 555.017 1265.25 557.017 1273.75 552.017C1282.25 547.017 1280.25 539.517 1289.25 537.517C1298.25 535.517 1307.13 534.517 1315.63 541.517C1324.13 548.517 1332.5 556.017 1337 559.892C1341.5 563.892 1349 565.392 1349 565.392L1338.75 629.392C1338.75 629.392 1269.75 660.517 1263.38 660.517C1256.88 660.517 1001.88 673.392 1001.88 673.392L1006.88 528.142Z" fill="#E0E0E0"/>
<path d="M1003.63 641.769C1003.63 641.769 1008.38 649.144 1009.88 652.144C1011.38 655.144 1019.38 658.144 1023.38 654.644C1027.38 651.144 1024.88 625.269 1027.38 621.769C1029.88 618.269 1054.76 621.269 1056.76 619.769C1058.76 618.269 1071.76 613.269 1077.13 616.269C1082.63 619.269 1091.63 633.144 1099.01 632.769C1106.51 632.269 1115.51 635.269 1121.38 628.269C1127.38 621.269 1136.88 607.894 1149.76 603.394C1162.63 598.894 1171.13 597.894 1173.13 595.894C1175.13 593.894 1192.51 570.519 1199.01 568.019C1205.51 565.519 1216.88 567.019 1221.38 568.019C1225.88 569.019 1227.88 571.019 1228.38 581.019C1228.88 591.019 1231.38 600.394 1233.38 603.394C1235.38 606.394 1250.26 620.269 1254.76 620.769C1259.26 621.269 1273.13 617.769 1286.63 620.769C1300.13 623.769 1320.51 630.269 1325.51 630.269C1330.51 630.269 1338.51 629.644 1338.51 629.644L1332.51 666.894C1332.51 666.894 1328.88 664.519 1319.88 666.019C1310.88 667.519 1306.88 673.519 1301.01 672.019C1295.13 670.519 1288.51 668.519 1284.51 670.019C1280.51 671.519 1259.63 693.894 1262.13 699.394C1264.63 704.894 1283.01 699.894 1288.01 703.394C1293.01 706.894 1300.01 712.894 1300.01 716.894C1300.01 720.894 1300.01 732.894 1296.51 735.269C1293.01 737.769 1277.13 737.269 1273.63 739.769C1270.13 742.269 1273.63 753.269 1268.13 760.144C1262.63 767.144 1244.76 782.519 1244.76 782.519C1244.76 782.519 1242.01 792.019 1240.38 795.144C1237.51 801.269 1233.01 808.019 1230.01 807.519C1227.01 807.019 1213.51 788.644 1207.13 788.144C1200.63 787.644 1202.63 807.519 1202.63 807.519L996.509 795.769L1003.63 641.769ZM1298.38 761.269C1297.88 758.519 1287.01 756.644 1284.51 760.394C1282.01 764.144 1274.88 773.769 1271.13 781.769C1267.38 789.769 1258.51 806.894 1264.88 810.644C1268.51 812.769 1284.26 801.644 1290.63 791.644C1292.13 789.269 1300.51 773.894 1298.38 761.269Z" fill="#7ADC8A"/>
<path d="M1202.63 807.48L996.631 795.605L999.756 864.105C999.756 864.105 1006.88 872.855 1009.76 881.605C1012.63 890.355 1019.38 907.23 1024.01 914.355C1028.63 921.48 1029.51 934.48 1040.38 933.23C1051.26 931.98 1050.51 918.105 1053.76 908.855C1057.13 899.605 1065.51 891.23 1068.88 888.355C1072.26 885.48 1079.38 877.48 1082.76 878.73C1086.13 879.98 1091.63 890.48 1096.13 896.355C1103.63 905.98 1125.01 915.23 1125.01 915.23C1125.01 915.23 1155.51 924.355 1159.76 910.98C1163.51 899.23 1155.76 883.855 1158.51 878.73C1162.01 872.48 1175.01 872.23 1187.51 868.73C1203.88 864.105 1208.51 851.48 1210.13 837.73C1211.76 823.98 1202.63 807.48 1202.63 807.48Z" fill="#D0FE8B"/>
<path d="M1221.49 990.867C1223.49 988.117 1211.87 982.742 1203.24 968.117C1194.62 953.492 1190.99 944.992 1186.74 944.117C1182.49 943.242 1157.99 954.617 1157.99 956.742C1157.99 958.867 1170.24 974.367 1170.24 974.367C1170.24 974.367 1153.49 978.867 1145.37 966.617C1137.24 954.367 1138.49 943.492 1133.37 934.867C1128.24 926.242 1120.24 913.867 1115.37 914.242C1110.62 914.492 1104.87 918.492 1107.24 926.867C1109.62 935.242 1111.49 937.992 1111.49 937.992C1115.74 947.242 1105.74 959.242 1109.99 966.117C1114.24 972.992 1148.99 996.117 1155.24 998.742C1161.49 1001.37 1217.87 995.867 1221.49 990.867ZM1217.37 944.117C1226.62 945.117 1228.74 922.867 1226.99 914.117C1225.24 905.367 1217.99 882.617 1210.49 882.617C1202.99 882.617 1196.37 891.867 1197.87 897.867C1199.37 903.867 1204.49 912.867 1204.74 915.867C1204.99 918.992 1208.87 943.242 1217.37 944.117ZM1245.49 954.242C1243.74 955.367 1242.49 968.367 1244.24 969.867C1245.99 971.367 1258.62 972.867 1264.62 980.617C1270.62 988.367 1270.87 996.742 1274.74 997.992C1278.62 999.242 1310.74 991.992 1310.74 977.617C1310.74 969.867 1250.87 950.742 1245.49 954.242ZM1378.74 1135.12C1381.99 1129.49 1379.74 1118.99 1382.99 1112.74C1386.24 1106.62 1394.99 1103.74 1398.87 1108.24C1402.74 1112.74 1403.12 1127.99 1400.49 1132.87C1398.74 1136.12 1398.49 1147.37 1389.49 1155.24C1380.49 1163.12 1375.24 1162.37 1372.62 1162.99C1369.99 1163.62 1357.74 1173.99 1352.62 1167.24C1347.49 1160.49 1354.87 1149.49 1361.99 1144.24C1368.99 1138.99 1376.49 1138.99 1378.74 1135.12ZM1272.99 1025.74C1271.74 1024.49 1270.12 1002.74 1258.49 1002.12C1246.87 1001.49 1237.49 1011.12 1237.49 1011.12C1237.49 1011.12 1222.99 1010.12 1219.37 1013.12C1215.87 1015.99 1202.49 1030.24 1196.74 1032.87C1190.87 1035.49 1181.87 1037.99 1175.74 1040.62C1169.62 1043.24 1165.99 1052.62 1166.74 1062.62C1167.37 1072.62 1169.62 1094.99 1170.62 1100.12C1171.62 1105.24 1178.37 1118.87 1194.87 1112.37C1211.37 1105.87 1217.24 1097.87 1220.12 1097.49C1222.99 1097.12 1249.24 1097.12 1250.87 1096.24C1252.49 1095.24 1267.37 1122.12 1280.37 1124.99C1293.37 1127.87 1309.49 1126.62 1312.37 1124.37C1315.24 1122.12 1332.37 1098.49 1333.99 1090.12C1335.62 1081.74 1335.24 1064.24 1331.99 1057.49C1328.74 1050.74 1307.99 1027.99 1307.99 1027.99C1307.99 1027.99 1304.74 1003.37 1289.49 1003.12C1277.49 1002.87 1285.99 1020.87 1282.99 1023.87C1280.12 1026.74 1272.99 1025.74 1272.99 1025.74Z" fill="#D0FE8B"/>
</svg>
