<svg width="24" height="24" viewBox="0 0 24 24" fill="none" xmlns="http://www.w3.org/2000/svg">
<path fill-rule="evenodd" clip-rule="evenodd" d="M12 4.00002C12 3.60638 12.2309 3.24937 12.5899 3.08796C12.949 2.92655 13.3693 2.99077 13.6637 3.25203L22.6637 11.2379C22.8776 11.4277 23 11.7 23 11.9859C23 12.2719 22.8776 12.5441 22.6637 12.7339L13.6637 20.7198C13.3693 20.9811 12.949 21.0453 12.5899 20.8839C12.2309 20.7225 12 20.3655 12 19.9718V11.9859C12 12.2719 11.8776 12.5441 11.6637 12.7339L2.66371 20.7198C2.36927 20.9811 1.94896 21.0453 1.58994 20.8839C1.23093 20.7225 1 20.3655 1 19.9718V4.00002C1 3.60638 1.23093 3.24937 1.58994 3.08796C1.94896 2.92655 2.36927 2.99077 2.66371 3.25203L11.6637 11.2379C11.8776 11.4277 12 11.7 12 11.9859V4.00002ZM14 17.7476L20.4933 11.9859L14 6.22425V17.7476ZM3 17.7476L9.49332 11.9859L3 6.22425V17.7476Z" fill="white"/>
</svg>
