<svg width="24" height="24" viewBox="0 0 24 24" fill="none" xmlns="http://www.w3.org/2000/svg">
<path fill-rule="evenodd" clip-rule="evenodd" d="M12 4.00002C12 3.60638 11.7691 3.24937 11.4101 3.08796C11.051 2.92655 10.6307 2.99077 10.3363 3.25203L1.33629 11.2379C1.12241 11.4277 1 11.7 1 11.9859C1 12.2719 1.12241 12.5441 1.33629 12.7339L10.3363 20.7198C10.6307 20.9811 11.051 21.0453 11.4101 20.8839C11.7691 20.7225 12 20.3655 12 19.9718V11.9859C12 12.2719 12.1224 12.5441 12.3363 12.7339L21.3363 20.7198C21.6307 20.9811 22.051 21.0453 22.4101 20.8839C22.7691 20.7225 23 20.3655 23 19.9718V4.00002C23 3.60638 22.7691 3.24937 22.4101 3.08796C22.051 2.92655 21.6307 2.99077 21.3363 3.25203L12.3363 11.2379C12.1224 11.4277 12 11.7 12 11.9859V4.00002ZM10 17.7476L3.50668 11.9859L10 6.22425V17.7476ZM21 17.7476L14.5067 11.9859L21 6.22425V17.7476Z" fill="white"/>
</svg>
