<svg width="16" height="16" viewBox="0 0 16 16" fill="none" xmlns="http://www.w3.org/2000/svg">
<path d="M11.5 13.0002H12.5V15.0002H11.5V13.0002ZM11.5 9.00016H12.5V11.0002H11.5V9.00016ZM13 11.5002H15V12.5002H13V11.5002ZM9.00003 11.5002H11V12.5002H9.00003V11.5002ZM12.671 5.03016L1.67103 1.03016C1.58162 0.997614 1.48478 0.991255 1.39188 1.01183C1.29899 1.0324 1.21389 1.07906 1.14658 1.14631C1.07928 1.21356 1.03256 1.29862 1.01191 1.3915C0.991267 1.48438 0.997551 1.58123 1.03003 1.67066L5.03003 12.6707C5.06457 12.7659 5.12725 12.8485 5.20975 12.9073C5.29226 12.9661 5.3907 12.9985 5.49203 13.0002H5.50003C5.60002 13.0002 5.69773 12.9702 5.78054 12.9142C5.86334 12.8581 5.92743 12.7785 5.96453 12.6857L7.88503 7.88466L12.686 5.96466C12.7803 5.92718 12.861 5.86189 12.9173 5.77746C12.9737 5.69303 13.0029 5.59346 13.0013 5.49198C12.9997 5.3905 12.9672 5.29193 12.9082 5.20935C12.8492 5.12677 12.7665 5.06459 12.671 5.03016ZM7.31403 7.03516L7.11503 7.11516L7.03553 7.31416L5.52253 11.0982L2.33603 2.33616L11.098 5.52216L7.31403 7.03516Z" fill="white"/>
</svg>
