<svg width="18" height="18" viewBox="0 0 18 18" fill="none" xmlns="http://www.w3.org/2000/svg">
<path d="M3.75 11C4.47935 11 5.17861 11.2899 5.69434 11.8057C6.21006 12.3214 6.5 13.0207 6.5 13.75V16.75C6.5 17.1642 6.16421 17.5 5.75 17.5C5.33579 17.5 5 17.1642 5 16.75V13.75C5 13.4185 4.86821 13.1006 4.63379 12.8662C4.42878 12.6612 4.16001 12.5344 3.87402 12.5059L3.75 12.5H0.75C0.335786 12.5 0 12.1642 0 11.75C0 11.3358 0.335786 11 0.75 11H3.75ZM16.75 11C17.1642 11 17.5 11.3358 17.5 11.75C17.5 12.1642 17.1642 12.5 16.75 12.5H13.75C13.4185 12.5 13.1006 12.6318 12.8662 12.8662C12.6612 13.0712 12.5344 13.34 12.5059 13.626L12.5 13.75V16.75C12.5 17.1642 12.1642 17.5 11.75 17.5C11.3358 17.5 11 17.1642 11 16.75V13.75C11 13.0207 11.2899 12.3214 11.8057 11.8057C12.3214 11.2899 13.0207 11 13.75 11H16.75ZM5.75 0C6.16421 1.81058e-08 6.5 0.335786 6.5 0.75V3.75C6.5 4.47935 6.21006 5.17861 5.69434 5.69434C5.17861 6.21006 4.47935 6.5 3.75 6.5H0.75C0.335787 6.5 1.1773e-07 6.16421 0 5.75C1.81058e-08 5.33579 0.335786 5 0.75 5H3.75C4.08152 5 4.39937 4.86821 4.63379 4.63379C4.8388 4.42878 4.96564 4.16001 4.99414 3.87402L5 3.75V0.75C5 0.335786 5.33579 -3.88156e-10 5.75 0ZM11.75 0C12.1642 2.35457e-07 12.5 0.335787 12.5 0.75V3.75C12.5 4.08152 12.6318 4.39937 12.8662 4.63379C13.0712 4.8388 13.34 4.96564 13.626 4.99414L13.75 5H16.75C17.1642 5 17.5 5.33579 17.5 5.75C17.5 6.16421 17.1642 6.5 16.75 6.5H13.75C13.0207 6.5 12.3214 6.21006 11.8057 5.69434C11.2899 5.17861 11 4.47935 11 3.75V0.75C11 0.335787 11.3358 3.62117e-08 11.75 0Z" fill="white"/>
</svg>
