<svg width="16" height="16" viewBox="0 0 16 16" fill="none" xmlns="http://www.w3.org/2000/svg">
<path fill-rule="evenodd" clip-rule="evenodd" d="M8.145 2.75001C8.32728 2.29905 8.66767 1.92997 9.10244 1.71186C9.5372 1.49374 10.0366 1.44155 10.507 1.56505C10.9775 1.68855 11.3869 1.97926 11.6584 2.38279C11.93 2.78632 12.0453 3.27499 11.9826 3.75734C11.9199 4.2397 11.6835 4.68267 11.3178 5.00334C10.952 5.32401 10.482 5.50041 9.99555 5.49951C9.50914 5.49861 9.03973 5.32048 8.67518 4.99846C8.31063 4.67643 8.07592 4.23259 8.015 3.75001H5C4.60218 3.75001 4.22064 3.90805 3.93934 4.18935C3.65804 4.47066 3.5 4.85219 3.5 5.25001C3.5 5.64784 3.65804 6.02937 3.93934 6.31067C4.22064 6.59198 4.60218 6.75001 5 6.75001H12C12.663 6.75001 13.2989 7.0134 13.7678 7.48224C14.2366 7.95109 14.5 8.58697 14.5 9.25001C14.5 9.91305 14.2366 10.5489 13.7678 11.0178C13.2989 11.4866 12.663 11.75 12 11.75H6.485C6.42408 12.2326 6.18938 12.6764 5.82482 12.9985C5.46027 13.3205 4.99086 13.4986 4.50445 13.4995C4.01803 13.5004 3.54797 13.324 3.18223 13.0033C2.81649 12.6827 2.58014 12.2397 2.51744 11.7573C2.45473 11.275 2.56996 10.7863 2.84155 10.3828C3.11315 9.97926 3.52249 9.68855 3.99297 9.56505C4.46344 9.44155 4.96279 9.49374 5.39756 9.71186C5.83233 9.92997 6.17272 10.299 6.355 10.75H12C12.3978 10.75 12.7794 10.592 13.0607 10.3107C13.342 10.0294 13.5 9.64784 13.5 9.25001C13.5 8.85219 13.342 8.47066 13.0607 8.18935C12.7794 7.90805 12.3978 7.75001 12 7.75001H5C4.33696 7.75001 3.70107 7.48662 3.23223 7.01778C2.76339 6.54894 2.5 5.91305 2.5 5.25001C2.5 4.58697 2.76339 3.95109 3.23223 3.48224C3.70107 3.0134 4.33696 2.75001 5 2.75001H8.145Z" fill="black"/>
</svg>
