<svg width="24" height="24" viewBox="0 0 24 24" fill="none" xmlns="http://www.w3.org/2000/svg">
<path d="M5.25 14.325C3.975 14.625 3 15.825 3 17.25C3 18.675 3.975 19.8 5.25 20.175L5.25 22.5L6.75 22.5L6.75 20.175C8.025 19.875 9 18.675 9 17.25C9 15.825 8.025 14.7 6.75 14.325L6.75 1.5L5.25 1.5L5.25 14.325ZM7.5 17.25C7.5 18.075 6.825 18.75 6 18.75C5.175 18.75 4.5 18.075 4.5 17.25C4.5 16.425 5.175 15.75 6 15.75C6.825 15.75 7.5 16.425 7.5 17.25ZM9 6.75C9 8.175 9.975 9.3 11.25 9.675L11.25 22.5L12.75 22.5L12.75 9.675C14.025 9.375 15 8.175 15 6.75C15 5.325 14.025 4.2 12.75 3.825L12.75 1.5L11.25 1.5L11.25 3.825C9.975 4.125 9 5.325 9 6.75ZM13.5 6.75C13.5 7.575 12.825 8.25 12 8.25C11.175 8.25 10.5 7.575 10.5 6.75C10.5 5.925 11.175 5.25 12 5.25C12.825 5.25 13.5 5.925 13.5 6.75ZM15 13.5C15 14.925 15.975 16.05 17.25 16.425L17.25 22.5L18.75 22.5L18.75 16.425C20.025 16.125 21 14.925 21 13.5C21 12.075 20.025 10.95 18.75 10.575L18.75 1.5L17.25 1.5L17.25 10.575C15.975 10.875 15 12.075 15 13.5ZM19.5 13.5C19.5 14.325 18.825 15 18 15C17.175 15 16.5 14.325 16.5 13.5C16.5 12.675 17.175 12 18 12C18.825 12 19.5 12.675 19.5 13.5Z" fill="black"/>
</svg>
